<?xml version="1.0" standalone="no"?>
<!DOCTYPE svg PUBLIC "-//W3C//DTD SVG 1.1//EN" "http://www.w3.org/Graphics/SVG/1.1/DTD/svg11.dtd">
<svg xmlns="http://www.w3.org/2000/svg">
<defs >
<font id="TurretRoad" horiz-adv-x="563" ><font-face
    font-family="Turret Road Medium"
    units-per-em="1000"
    panose-1="0 0 6 0 0 0 0 0 0 0"
    ascent="850"
    descent="-243"
    alphabetic="0" />
<glyph unicode=" " glyph-name="space" horiz-adv-x="400" />
<glyph unicode="!" glyph-name="exclam" horiz-adv-x="165" d="M50 700H115V197H50V700ZM50 103H115V0H50V103Z" />
<glyph unicode="&quot;" glyph-name="quotedbl" horiz-adv-x="295" d="M50 478V700H116V478H50ZM179 478V700H245V478H179Z" />
<glyph unicode="#" glyph-name="numbersign" horiz-adv-x="787" d="M557 233L521 -6L426 -77L386 -24L459 31L489 233H262L227 -6L132 -77L93 -24L165 31L196 233H50V300H206L226 434H50V501H235L270 729L365 800L405 747L332 693L303 501H529L563 729L659 800L699
747L625 693L597 501H737V434H587L567 300H737V233H557ZM294 434L273 300H499L519 434H294Z" />
<glyph unicode="$" glyph-name="dollar" horiz-adv-x="670" d="M479 0H369V-67H302V0H189L40 129V223H107V159L214 67H302V317H149L40 409V572L191 701H302V768H369V701H481L630 572V490H564V542L457 634H369V384H521L630 292V128L479 0ZM302 634H216L107 542V440L172
384H302V634ZM564 261L498 317H369V67H455L564 160V261Z" />
<glyph unicode="%" glyph-name="percent" horiz-adv-x="900" d="M536 688L432 -11L336 -82L297 -29L370 26L474 724L569 795L609 742L536 688ZM270 403H119L50 455V647L119 699H270L339 647V455L270 403ZM273 613L248 631H142L116 613V489L142 471H248L273 489V613ZM561
247L630 298H781L850 247V55L781 3H630L561 55V247ZM653 70H759L783 89V213L759 232H653L627 213V89L653 70Z" />
<glyph unicode="&amp;" glyph-name="ampersand" horiz-adv-x="672" d="M50 83V256L207 362L98 478V620L196 700H384L492 620V474L310 351L547 115L556 123V253H622V81L525 0H140L50 83ZM425 509V587L363 633H220L164 588V504L263 401L425 509ZM490 67L496 73L253
313L117 222V113L166 67H490Z" />
<glyph unicode="&apos;" glyph-name="quotesingle" horiz-adv-x="166" d="M50 478V700H116V478H50Z" />
<glyph unicode="(" glyph-name="parenleft" horiz-adv-x="211" d="M58 626L149 702L186 648L120 596V-47L186 -100L149 -153L58 -77V626Z" />
<glyph unicode=")" glyph-name="parenright" horiz-adv-x="213" d="M72 -153L35 -100L101 -47V596L35 648L72 702L163 626V-77L72 -153Z" />
<glyph unicode="*" glyph-name="asterisk" horiz-adv-x="457" d="M304 488L379 419L332 372L262 447V343H196V447L127 372L79 419L154 488H50V554H154L79 624L127 671L196 596V700H262V596L332 671L379 624L304 554H407V488H304Z" />
<glyph unicode="+" glyph-name="plus" horiz-adv-x="562" d="M314 264V56H248V264H40V330H248V538H314V330H522V264H314Z" />
<glyph unicode="," glyph-name="comma" horiz-adv-x="197" d="M76 -126L35 -77L86 -25V141H147V-55L76 -126Z" />
<glyph unicode="-" glyph-name="hyphen" horiz-adv-x="403" d="M353 264H50V325H353V264Z" />
<glyph unicode="." glyph-name="period" horiz-adv-x="161" d="M50 1V87H111V1H50Z" />
<glyph unicode="/" glyph-name="slash" horiz-adv-x="391" d="M278 693L173 -6L78 -77L40 -24L113 32L218 730L313 801L351 747L278 693Z" />
<glyph unicode="0" glyph-name="zero" horiz-adv-x="644" d="M507 0H137L40 128V570L137 700H506L604 570V128L507 0ZM538 548L474 633H169L106 548V152L170 67H474L538 152V548Z" />
<glyph unicode="1" glyph-name="one" horiz-adv-x="334" d="M224 0V634H170L105 588V537H40V620L147 701H289V0H224Z" />
<glyph unicode="2" glyph-name="two" horiz-adv-x="650" d="M519 326L147 122V67H597V0H80V164L474 377L544 479V549L481 634H164L93 540L40 581L130 701H513L610 571V458L519 326Z" />
<glyph unicode="3" glyph-name="three" horiz-adv-x="559" d="M422 0H148L40 80V174H107V115L170 67H397L453 113V262L338 349L453 440V590L397 635H171L107 589V528H40V622L148 702H422L519 621V407L447 350L519 296V81L422 0Z" />
<glyph unicode="4" glyph-name="four" horiz-adv-x="527" d="M314 229V0H249V229H40V628L131 700L172 648L108 596V295H249V409H314V295H497V229H314Z" />
<glyph unicode="5" glyph-name="five" horiz-adv-x="651" d="M513 0H130L40 119L93 161L163 67H480L544 152V222L476 320L79 413V701H582V634H146V466L517 380L611 243V128L513 0Z" />
<glyph unicode="6" glyph-name="six" d="M426 1H45V620L143 700H416L523 621V532H458V587L394 633H166L110 588V396H426L523 316V81L426 1ZM458 285L402 329H110V68H402L458 113V285Z" />
<glyph unicode="7" glyph-name="seven" horiz-adv-x="580" d="M372 -2H300L474 473V548L411 633H164L94 539L40 580L132 700H443L540 570V462L372 -2Z" />
<glyph unicode="8" glyph-name="eight" horiz-adv-x="559" d="M421 -2H139L40 79V296L113 350L40 407V620L139 701H421L519 620V407L447 350L519 296V79L421 -2ZM452 589L397 634H163L107 589V440L179 384H381L452 440V589ZM452 263L382 317H179L107 262V111L162
65H397L452 111V263Z" />
<glyph unicode="9" glyph-name="nine" horiz-adv-x="564" d="M422 -1H147L40 80V168H107V112L171 66H397L453 112V304H138L40 385V619L138 700H519V81L422 -1ZM453 633H162L107 587V416L163 370H453V633Z" />
<glyph unicode=":" glyph-name="colon" horiz-adv-x="141" d="M40 367V453H101V367H40ZM40 39V125H101V39H40Z" />
<glyph unicode=";" glyph-name="semicolon" horiz-adv-x="206" d="M96 98V205H156V98H96ZM73 -158L35 -105L96 -52V7H156V-85L73 -158Z" />
<glyph unicode="&lt;" glyph-name="less" horiz-adv-x="448" d="M40 329L342 545H408V512L116 302L408 93V59H342L40 275V329Z" />
<glyph unicode="=" glyph-name="equal" horiz-adv-x="562" d="M40 345V410H522V345H40ZM40 189V254H522V189H40Z" />
<glyph unicode="&gt;" glyph-name="greater" horiz-adv-x="448" d="M106 59H40V93L333 302L40 512V545H106L408 329V275L106 59Z" />
<glyph unicode="?" glyph-name="question" horiz-adv-x="697" d="M551 317H389V193H323V383H516L581 478V550L517 634H173L103 542L50 582L140 700H550L647 573V457L551 317ZM323 0V102H389V0H323Z" />
<glyph unicode="@" glyph-name="at" horiz-adv-x="835" d="M50 129V572L148 700H688L785 572V129L688 0H526L525 185L483 154H286L206 222V462L286 529H487L526 488V529H594V67H654L717 152V549L654 633H181L117 549V152L181 67H379V0H148L50 129ZM483 221L526
254V411L478 462H311L272 431V253L311 221H483Z" />
<glyph unicode="A" glyph-name="A" horiz-adv-x="633" d="M527 0V242H106V0H40V345L265 700H353L593 343V0H527ZM525 326L318 633H301L107 327V308H525V326Z" />
<glyph unicode="B" glyph-name="B" horiz-adv-x="639" d="M549 0H50V700H549L599 579V480L507 349L599 221V121L549 0ZM533 567L504 633H117V382H449L533 501V567ZM533 199L449 315H117V67H504L533 134V199Z" />
<glyph unicode="C" glyph-name="C" horiz-adv-x="689" d="M596 539L525 633H176L113 548V153L176 67H524L595 161L648 121L557 0H143L45 130V571L143 700H558L649 580L596 539Z" />
<glyph unicode="D" glyph-name="D" horiz-adv-x="685" d="M548 0H50V700H548L645 572V129L548 0ZM578 549L514 633H117V67H514L578 152V549Z" />
<glyph unicode="E" glyph-name="E" horiz-adv-x="528" d="M149 0L50 130V571L149 700H488V633H183L118 548V382H415V315H118V153L183 67H488V0H149Z" />
<glyph unicode="F" glyph-name="F" horiz-adv-x="504" d="M171 633L107 549V388H387V321H107V0H40V572L137 700H474V633H171Z" />
<glyph unicode="G" glyph-name="G" horiz-adv-x="691" d="M552 0H138L40 130V571L138 700H552L644 580L590 539L519 633H171L107 548V153L171 67H519L584 153V232H443V300H651V130L552 0Z" />
<glyph unicode="H" glyph-name="H" horiz-adv-x="602" d="M486 0V319H116V0H50V700H116V386H486V700H552V0H486Z" />
<glyph unicode="I" glyph-name="I" horiz-adv-x="165" d="M50 0V700H115V0H50Z" />
<glyph unicode="J" glyph-name="J" horiz-adv-x="416" d="M268 0H30V67H235L300 152V700H366V129L268 0Z" />
<glyph unicode="K" glyph-name="K" horiz-adv-x="542" d="M423 1L194 318L117 319V0H50V700H117V385H194L423 700H502V633H457L252 351L457 68H502V1H423Z" />
<glyph unicode="L" glyph-name="L" horiz-adv-x="458" d="M148 0L50 129V700H116V152L181 67H428V0H148Z" />
<glyph unicode="M" glyph-name="M" horiz-adv-x="1024" d="M907 0V549L843 633H666L545 36H480L359 633H181L117 549V0H50V572L148 700H413L512 210L611 700H877L974 572V0H907Z" />
<glyph unicode="N" glyph-name="N" horiz-adv-x="686" d="M475 0L316 632H180L116 548V1H50V571L147 699H368L526 67H571V700H636V0H475Z" />
<glyph unicode="O" glyph-name="O" horiz-adv-x="708" d="M561 0H148L50 129V572L148 700H561L658 572V129L561 0ZM592 549L528 633H181L117 549V152L181 67H528L592 152V549Z" />
<glyph unicode="P" glyph-name="P" horiz-adv-x="625" d="M470 315H117V0H50V700H535L585 579V480L470 315ZM519 567L491 633H117V382H435L519 501V567Z" />
<glyph unicode="Q" glyph-name="Q" horiz-adv-x="706" d="M559 0H404V-94L307 -167L267 -113L338 -60V0H148L50 129V571L148 699H559L656 571V129L559 0ZM590 547L527 631H180L117 547V152L180 67H527L590 152V547Z" />
<glyph unicode="R" glyph-name="R" horiz-adv-x="626" d="M470 317H436L575 0H500L364 317H116V0H50V700H535L586 581V481L470 317ZM520 568L492 633H117V383H437L520 502V568Z" />
<glyph unicode="S" glyph-name="S" horiz-adv-x="669" d="M478 0H188L40 128V217H107V158L213 67H454L563 159V252L497 309H148L40 401V573L191 700H481L629 572V484H563V542L456 633H215L107 542V432L172 376H520L629 284V128L478 0Z" />
<glyph unicode="T" glyph-name="T" horiz-adv-x="629" d="M410 633L347 549V0H280V549L216 633H40V700H248L313 616L378 700H589V633H410Z" />
<glyph unicode="U" glyph-name="U" horiz-adv-x="676" d="M530 0H147L50 128V700H117V151L181 67H496L561 151V700H626V128L530 0Z" />
<glyph unicode="V" glyph-name="V" horiz-adv-x="635" d="M317 68H333L529 376V700H595V357L370 0H281L40 358V700H107V379L317 68Z" />
<glyph unicode="W" glyph-name="W" horiz-adv-x="1004" d="M876 0H601L502 491L403 0H128L40 349V700H107V357L180 67H349L469 665H535L656 67H824L897 357V700H964V349L876 0Z" />
<glyph unicode="X" glyph-name="X" horiz-adv-x="665" d="M544 0L332 293L122 0H40V67H87L291 350L87 633H40V700H122L332 407L544 700H625V633H578L375 350L578 67H625V0H544Z" />
<glyph unicode="Y" glyph-name="Y" horiz-adv-x="636" d="M306 323L334 306L530 614V700H596V595L370 239H360V0H248V66H294V239H281L40 597V700H107V617L306 323Z" />
<glyph unicode="Z" glyph-name="Z" horiz-adv-x="610" d="M107 94V67H565V0H40V121L504 609V633H46V700H570V583L107 94Z" />
<glyph unicode="[" glyph-name="bracketleft" horiz-adv-x="237" d="M50 -127V700H197V633H112V-59H197V-127H50Z" />
<glyph unicode="\" glyph-name="backslash" horiz-adv-x="391" d="M313 -75L218 -4L113 695L40 749L78 803L173 732L278 34L351 -22L313 -75Z" />
<glyph unicode="]" glyph-name="bracketright" horiz-adv-x="237" d="M40 -59H126V633H40V700H187V-127H40V-59Z" />
<glyph unicode="^" glyph-name="asciicircum" horiz-adv-x="416" d="M295 502L210 626L122 502H40L183 700H237L376 502H295Z" />
<glyph unicode="_" glyph-name="underscore" horiz-adv-x="576" d="M526 -121L50 -122V-73H526V-121Z" />
<glyph unicode="`" glyph-name="grave" horiz-adv-x="600" d="M50 610V700H103V628L141 578L98 547L50 610Z" />
<glyph unicode="a" glyph-name="a" horiz-adv-x="565" d="M450 1V38L401 0H138L40 81V397L138 477H402L450 430V477H515V1H450ZM450 340L383 412H161L107 366V111L162 67H387L450 118V340Z" />
<glyph unicode="b" glyph-name="b" horiz-adv-x="567" d="M430 0H170L117 37V0H50V700H117V431L164 478H430L527 398V81L430 0ZM462 366L406 411H183L117 341V119L179 67H406L462 113V366Z" />
<glyph unicode="c" glyph-name="c" horiz-adv-x="578" d="M431 -2H158L50 78V399L158 478H431L528 397V310H462V366L407 412H179L117 365V112L179 65H407L462 110V166H528V79L431 -2Z" />
<glyph unicode="d" glyph-name="d" horiz-adv-x="566" d="M450 1V38L400 0H138L40 81V399L138 478H402L450 432V697H516V1H450ZM450 341L384 412H161L107 367V112L162 67H387L450 119V341Z" />
<glyph unicode="e" glyph-name="e" horiz-adv-x="556" d="M107 220V113L169 67H395L461 122L504 70L419 0H147L40 80V399L147 477H419L516 397V220H107ZM450 366L395 412H169L107 365V283H450V366Z" />
<glyph unicode="f" glyph-name="f" horiz-adv-x="375" d="M221 411V0H155V411H35V478H155V573L253 700H345V634H285L221 550V478H345V411H221Z" />
<glyph unicode="g" glyph-name="g" horiz-adv-x="566" d="M409 -222H180L95 -152L137 -101L203 -156H387L450 -110V37L399 0H138L40 81V398L138 477H399L450 440V478H516V-143L409 -222ZM450 365L387 411H161L107 366V112L161 67H387L450 113V365Z" />
<glyph unicode="h" glyph-name="h" horiz-adv-x="537" d="M431 0V366L369 412H182L116 341V1H50V699H116V432L161 478H390L497 399V0H431Z" />
<glyph unicode="i" glyph-name="i" horiz-adv-x="161" d="M51 546V618H111V546H51ZM50 0V478H111V0H50Z" />
<glyph unicode="j" glyph-name="j" horiz-adv-x="190" d="M71 546V623H132V546H71ZM38 -237L3 -184L72 -134V478H133V-164L38 -237Z" />
<glyph unicode="k" glyph-name="k" horiz-adv-x="465" d="M50 0V698H115V270L360 434V482H425V398L191 241L425 82V0H360V46L132 201L115 185V0H50Z" />
<glyph unicode="l" glyph-name="l" horiz-adv-x="295" d="M148 0L50 128V700H114V151L180 67H255V0H148Z" />
<glyph unicode="m" glyph-name="m" horiz-adv-x="782" d="M675 0V328L612 412H480L422 133H360L303 412H170L107 328V0H40V349L138 478H352L391 279L431 478H646L742 349V0H675Z" />
<glyph unicode="n" glyph-name="n" horiz-adv-x="538" d="M432 0V365L369 412H180L117 365V1H50V477H117V435L170 477H390L498 399V0H432Z" />
<glyph unicode="o" glyph-name="o" horiz-adv-x="548" d="M401 -2H147L40 78V399L147 477H401L508 399V78L401 -2ZM442 365L379 412H170L107 365V112L170 65H379L442 112V365Z" />
<glyph unicode="p" glyph-name="p" horiz-adv-x="565" d="M429 0H170L115 41V-222H50V477H115V423L173 478H429L525 398V81L429 0ZM460 366L404 411H190L115 340V113L178 67H404L460 112V366Z" />
<glyph unicode="q" glyph-name="q" horiz-adv-x="565" d="M450 -222V41L394 0H137L40 81V398L137 478H391L450 423V477H515V-222H450ZM450 340L376 411H161L105 366V112L161 67H387L450 113V340Z" />
<glyph unicode="r" glyph-name="r" horiz-adv-x="438" d="M359 380L315 412H178L116 365V0H50V478H116V433L172 478H338L398 432L359 380Z" />
<glyph unicode="s" glyph-name="s" horiz-adv-x="503" d="M368 0H48V63H346L400 108V156L345 207H130L40 288V395L130 476H439V413H155L104 368V315L155 270H370L463 184V78L368 0Z" />
<glyph unicode="t" glyph-name="t" horiz-adv-x="390" d="M226 412V0H160V412H40V478H160V699H226V478H350V412H226Z" />
<glyph unicode="u" glyph-name="u" horiz-adv-x="537" d="M422 1V43L366 0H147L40 80V478H107V118L169 67H359L422 118V477H487V1H422Z" />
<glyph unicode="v" glyph-name="v" horiz-adv-x="523" d="M309 0H228L40 213V478H107V239L257 67H278L418 236V478H483V212L309 0Z" />
<glyph unicode="w" glyph-name="w" horiz-adv-x="781" d="M617 0H436L391 204L346 0H164L40 189V478H107V209L200 67H302L360 346H422L480 67H582L675 209V478H741V189L617 0Z" />
<glyph unicode="x" glyph-name="x" horiz-adv-x="501" d="M250 182L120 0H40V67H87L211 237L87 411H40V478H120L250 295L381 478H461V411H414L291 237L414 67H461V0H381L250 182Z" />
<glyph unicode="y" glyph-name="y" horiz-adv-x="523" d="M164 -176L112 -134L225 4L40 216V478H107V240L257 68H278L418 237V478H483V214L164 -176Z" />
<glyph unicode="z" glyph-name="z" horiz-adv-x="533" d="M144 67H488V0H40V66L420 383L427 412H46V478H493V359L144 67Z" />
<glyph unicode="{" glyph-name="braceleft" horiz-adv-x="282" d="M206 -151L118 -79V165L50 274L118 384V628L206 700L247 648L182 596V366L126 274L182 184V-47L247 -100L206 -151Z" />
<glyph unicode="|" glyph-name="bar" horiz-adv-x="162" d="M50 700H112V0H51L50 700Z" />
<glyph unicode="}" glyph-name="braceright" horiz-adv-x="282" d="M100 -47V184L156 274L100 366V596L35 648L76 700L164 628V384L232 274L164 165V-79L76 -151L35 -100L100 -47Z" />
<glyph unicode="~" glyph-name="asciitilde" horiz-adv-x="585" d="M460 267H153L88 202L40 247L125 330H433L498 394L545 351L460 267Z" />
<glyph unicode="&#xa0;" glyph-name="uni00A0" horiz-adv-x="400" />
<glyph unicode="&#xa1;" glyph-name="exclamdown" horiz-adv-x="165" d="M115 478V375H50V478H115ZM115 281V-223H50V281H115Z" />
<glyph unicode="&#xa2;" glyph-name="cent" horiz-adv-x="556" d="M419 -1H311V-68H245V-1H147L40 80V398L147 478H245V544H311V478H419L516 397V313H450V365L395 411H311V66H395L450 112V164H516V81L419 -1ZM245 411H169L107 364V113L169 66H245V411Z" />
<glyph unicode="&#xa3;" glyph-name="sterling" horiz-adv-x="455" d="M48 0L160 295V410H40V476H160V572L258 699H407V633H290L226 549V476H350V410H226V283L143 62H412V0H48Z" />
<glyph unicode="&#xa4;" glyph-name="currency" horiz-adv-x="609" d="M521 1L461 65L432 43H177L148 65L89 2L40 47L94 105L69 123V443L94 462L40 520L89 565L148 502L177 524H432L462 502L521 565L569 520L515 462L540 443V123L515 105L569 46L521 1ZM473 410L411
457H199L136 410V156L199 110H411L473 156V410Z" />
<glyph unicode="&#xa5;" glyph-name="yen" horiz-adv-x="634" d="M376 279H482V212H360V166H482V100H360V0H294V100H171V166H294V212H171V279H274L40 625V699H107V644L325 323L528 643V699H594V623L376 279Z" />
<glyph unicode="&#xa6;" glyph-name="brokenbar" horiz-adv-x="165" d="M50 705H115V424H50V705ZM50 277H115V1H50V277Z" />
<glyph unicode="&#xa7;" glyph-name="section" horiz-adv-x="407" d="M298 33H110L40 90V154H106V123L134 100H274L301 123V204L268 232H110L40 291V437L78 467L40 496V643L110 700H297L367 643V579H301V609L274 633H134L106 609V528L139 500H291L367 443V295L329
266L367 238V90L298 33ZM301 407L272 432H139L106 405V325L134 300H269L301 328V407Z" />
<glyph unicode="&#xa8;" glyph-name="dieresis" horiz-adv-x="600" d="M50 714H139V660H50V714ZM216 660V714H305V660H216Z" />
<glyph unicode="&#xa9;" glyph-name="copyright" horiz-adv-x="709" d="M561 0H148L50 129V572L148 700H561L659 572V129L561 0ZM592 549L528 633H181L117 549V152L181 67H528L592 152V549ZM453 176H262L183 236V463L262 522H453L525 462V397H463V433L431 459H283L246
432V267L283 239H431L463 266V302H525V236L453 176Z" />
<glyph unicode="&#xaa;" glyph-name="ordfeminine" horiz-adv-x="366" d="M316 700V430H271V450L247 430H109L50 473V657L109 700H247L271 680V700H316ZM271 505V626L233 652H132L100 626V505L132 480H233L271 505Z" />
<glyph unicode="&#xab;" glyph-name="guillemotleft" horiz-adv-x="622" d="M307 475L342 419L154 299L342 177L307 121L50 283V315L307 475ZM547 475L582 419L394 299L582 177L547 121L290 283V315L547 475Z" />
<glyph unicode="&#xac;" glyph-name="logicalnot" horiz-adv-x="522" d="M339 124V187H406V264H40V327H472V124H339Z" />
<glyph unicode="&#xad;" glyph-name="uni00AD" horiz-adv-x="600" d="M353 264H50V325H353V264Z" />
<glyph unicode="&#xae;" glyph-name="registered" horiz-adv-x="553" d="M50 281V601L125 700H429L503 601V281L429 182H125L50 281ZM395 249L437 302V579L395 634H158L117 579V302L158 249H395ZM186 557H243V536L274 557H342L387 522L354 476L322 499H282L243
480V327H186V557Z" />
<glyph unicode="&#xaf;" glyph-name="overscore" horiz-adv-x="600" d="M50 700H340V658H50V700Z" />
<glyph unicode="&#xb0;" glyph-name="degree" horiz-adv-x="371" d="M261 377H110L40 429V621L110 673H261L331 621V429L261 377ZM273 593L246 615H126L99 593V458L126 435H246L273 458V593Z" />
<glyph unicode="&#xb1;" glyph-name="plusminus" horiz-adv-x="562" d="M314 286V217H248V286H40V352H248V560H314V352H522V286H314ZM40 92V160H522V92H40Z" />
<glyph unicode="&#xb2;" glyph-name="uni00B2" horiz-adv-x="449" d="M359 473L103 333V302H414V250H53V365L326 512L373 582V625L331 682H114L65 617L25 647L89 734H355L423 642V565L359 473Z" />
<glyph unicode="&#xb3;" glyph-name="uni00B3" horiz-adv-x="386" d="M291 250H101L26 306V375H76V333L118 302H274L311 332V430L230 491L311 555V653L273 684H119L76 653V609H26V678L101 734H291L360 677V529L313 491L360 455V307L291 250Z" />
<glyph unicode="&#xb4;" glyph-name="acute" horiz-adv-x="600" d="M50 578L88 628V700H141V610L93 547L50 578Z" />
<glyph unicode="&#xb5;" glyph-name="uni00B5" horiz-adv-x="537" d="M487 477V1H422V43L366 0H147L107 30V-69H40V478H107V118L169 67H359L422 118V477H487Z" />
<glyph unicode="&#xb6;" glyph-name="paragraph" horiz-adv-x="592" d="M342 368H155L40 480V579L90 700H409V0H342V368ZM475 700H542V0H475V700ZM342 427V643H137L104 565V500L180 427H342Z" />
<glyph unicode="&#xb7;" glyph-name="middot" horiz-adv-x="161" d="M50 262V353H111V262H50Z" />
<glyph unicode="&#xb8;" glyph-name="cedilla" horiz-adv-x="600" d="M96 -226L50 -153V-113H101V-138L124 -175L175 -176L209 -136V-100L147 -42L166 23L217 16L207 -28L260 -77V-156L198 -226H96Z" />
<glyph unicode="&#xb9;" glyph-name="uni00B9" horiz-adv-x="247" d="M161 250V683H126L83 652V616H34V677L109 734H209V250H161Z" />
<glyph unicode="&#xba;" glyph-name="ordmasculine" horiz-adv-x="355" d="M257 430H109L50 473V657L109 700H257L315 657V473L257 430ZM269 628L235 654H132L98 628V503L132 477H235L269 503V628Z" />
<glyph unicode="&#xbb;" glyph-name="guillemotright" horiz-adv-x="622" d="M332 283L75 121L40 177L228 299L40 419L75 475L332 315V283ZM572 283L315 121L280 177L468 299L280 419L315 475L572 315V283Z" />
<glyph unicode="&#xbc;" glyph-name="onequarter" horiz-adv-x="978" d="M161 250V683H126L83 652V616H34V677L109 734H209V250H161ZM222 -24L297 31L571 733L661 798L694 755L619 701L344 -2L254 -67L222 -24ZM833 155V0H784V155H640V433L705 484L735 445L691
408V206H784V284H833V206H959V155H833Z" />
<glyph unicode="&#xbd;" glyph-name="onehalf" horiz-adv-x="1062" d="M161 250V683H126L83 652V616H34V677L109 734H209V250H161ZM222 -24L297 31L571 733L661 798L694 755L619 701L344 -2L254 -67L222 -24ZM973 223L717 83V52H1028V0H667V115L940 262L987 332V375L945
432H728L679 367L639 397L703 484H969L1037 392V315L973 223Z" />
<glyph unicode="&#xbe;" glyph-name="threequarters" horiz-adv-x="1067" d="M291 250H101L26 306V375H76V333L118 302H274L311 332V430L230 491L311 555V653L273 684H119L76 653V609H26V678L101 734H291L360 677V529L313 491L360 455V307L291 250ZM311 -24L386
31L660 733L750 798L783 755L708 701L433 -2L343 -67L311 -24ZM922 155V0H873V155H729V433L794 484L824 445L780 408V206H873V284H922V206H1048V155H922Z" />
<glyph unicode="&#xbf;" glyph-name="questiondown" horiz-adv-x="697" d="M389 463H323V565H389V463ZM647 -8L550 -136H140L50 -17L103 23L173 -70H517L581 15V87L516 182H323V372H389V248H551L647 108V-8Z" />
<glyph unicode="&#xc0;" glyph-name="Agrave" horiz-adv-x="633" d="M527 0V242H106V0H40V345L265 700H353L593 343V0H527ZM525 326L318 633H301L107 327V308H525V326ZM271 832V922H324V850L362 800L319 769L271 832Z" />
<glyph unicode="&#xc1;" glyph-name="Aacute" horiz-adv-x="633" d="M527 0V242H106V0H40V345L265 700H353L593 343V0H527ZM525 326L318 633H301L107 327V308H525V326ZM271 800L309 850V922H362V832L314 769L271 800Z" />
<glyph unicode="&#xc2;" glyph-name="Acircumflex" horiz-adv-x="633" d="M527 0V242H106V0H40V345L265 700H353L593 343V0H527ZM525 326L318 633H301L107 327V308H525V326ZM295 922H343L445 793H387L319 876L249 793H189L295 922Z" />
<glyph unicode="&#xc3;" glyph-name="Atilde" horiz-adv-x="633" d="M527 0V242H106V0H40V345L265 700H353L593 343V0H527ZM525 326L318 633H301L107 327V308H525V326ZM157 790L214 847H398L439 888L477 853L420 794H236L195 752L157 790Z" />
<glyph unicode="&#xc4;" glyph-name="Adieresis" horiz-adv-x="633" d="M527 0V242H106V0H40V345L265 700H353L593 343V0H527ZM525 326L318 633H301L107 327V308H525V326ZM190 851H279V797H190V851ZM356 797V851H445V797H356Z" />
<glyph unicode="&#xc5;" glyph-name="Aring" horiz-adv-x="633" d="M527 0V242H106V0H40V345L265 700H353L593 343V0H527ZM525 326L318 633H301L107 327V308H525V326ZM242 796V897L276 922H357L391 897V796L357 771H276L242 796ZM340 810L352 819V873L340 883H294L281
873V819L294 810H340Z" />
<glyph unicode="&#xc6;" glyph-name="AE" horiz-adv-x="1009" d="M40 345L265 700H353L526 443V571L625 700H964V633H659L594 548V382H891V315H594V153L659 67H964V0H625L526 130V242H106V0H40V345ZM525 308L515 341L396 515L301 633L195 467L107 308H525Z" />
<glyph unicode="&#xc7;" glyph-name="Ccedilla" horiz-adv-x="689" d="M595 161L648 121L557 0H405L399 -28L452 -77V-156L390 -226H288L242 -153V-113H293V-138L316 -175L367 -176L401 -136V-100L339 -42L351 0H143L45 130V571L143 700H558L649 580L596 539L525
633H176L113 548V153L176 67H524L595 161Z" />
<glyph unicode="&#xc8;" glyph-name="Egrave" horiz-adv-x="528" d="M149 0L50 130V571L149 700H488V633H183L118 548V382H415V315H118V153L183 67H488V0H149ZM223 832V922H276V850L314 800L271 769L223 832Z" />
<glyph unicode="&#xc9;" glyph-name="Eacute" horiz-adv-x="528" d="M149 0L50 130V571L149 700H488V633H183L118 548V382H415V315H118V153L183 67H488V0H149ZM223 800L261 850V922H314V832L266 769L223 800Z" />
<glyph unicode="&#xca;" glyph-name="Ecircumflex" horiz-adv-x="528" d="M149 0L50 130V571L149 700H488V633H183L118 548V382H415V315H118V153L183 67H488V0H149ZM247 922H295L397 793H339L271 876L201 793H141L247 922Z" />
<glyph unicode="&#xcb;" glyph-name="Edieresis" horiz-adv-x="528" d="M149 0L50 130V571L149 700H488V633H183L118 548V382H415V315H118V153L183 67H488V0H149ZM142 851H231V797H142V851ZM308 797V851H397V797H308Z" />
<glyph unicode="&#xcc;" glyph-name="Igrave" horiz-adv-x="165" d="M50 0V700H115V0H50ZM36 832V922H89V850L127 800L84 769L36 832Z" />
<glyph unicode="&#xcd;" glyph-name="Iacute" horiz-adv-x="165" d="M50 0V700H115V0H50ZM36 800L74 850V922H127V832L79 769L36 800Z" />
<glyph unicode="&#xce;" glyph-name="Icircumflex" horiz-adv-x="346" d="M146 0V700H211V0H146ZM156 922H204L306 793H248L180 876L110 793H50L156 922Z" />
<glyph unicode="&#xcf;" glyph-name="Idieresis" horiz-adv-x="355" d="M145 0V700H210V0H145ZM50 852H139V798H50V852ZM216 798V852H305V798H216Z" />
<glyph unicode="&#xd0;" glyph-name="Eth" horiz-adv-x="796" d="M756 572V129L658 0H161V344H50V396H161V700H658L756 572ZM688 549L625 633H227V396H562V344H227V67H625L688 152V549Z" />
<glyph unicode="&#xd1;" glyph-name="Ntilde" horiz-adv-x="686" d="M475 0L316 632H180L116 548V1H50V571L147 699H368L526 67H571V700H636V0H475ZM188 790L245 847H429L470 888L508 853L451 794H267L226 752L188 790Z" />
<glyph unicode="&#xd2;" glyph-name="Ograve" horiz-adv-x="708" d="M561 0H148L50 129V572L148 700H561L658 572V129L561 0ZM592 549L528 633H181L117 549V152L181 67H528L592 152V549ZM308 832V922H361V850L399 800L356 769L308 832Z" />
<glyph unicode="&#xd3;" glyph-name="Oacute" horiz-adv-x="708" d="M561 0H148L50 129V572L148 700H561L658 572V129L561 0ZM592 549L528 633H181L117 549V152L181 67H528L592 152V549ZM308 800L346 850V922H399V832L351 769L308 800Z" />
<glyph unicode="&#xd4;" glyph-name="Ocircumflex" horiz-adv-x="708" d="M561 0H148L50 129V572L148 700H561L658 572V129L561 0ZM592 549L528 633H181L117 549V152L181 67H528L592 152V549ZM332 922H380L482 793H424L356 876L286 793H226L332 922Z" />
<glyph unicode="&#xd5;" glyph-name="Otilde" horiz-adv-x="708" d="M561 0H148L50 129V572L148 700H561L658 572V129L561 0ZM592 549L528 633H181L117 549V152L181 67H528L592 152V549ZM194 790L251 847H435L476 888L514 853L457 794H273L232 752L194 790Z" />
<glyph unicode="&#xd6;" glyph-name="Odieresis" horiz-adv-x="708" d="M561 0H148L50 129V572L148 700H561L658 572V129L561 0ZM592 549L528 633H181L117 549V152L181 67H528L592 152V549ZM227 851H316V797H227V851ZM393 797V851H482V797H393Z" />
<glyph unicode="&#xd7;" glyph-name="multiply" horiz-adv-x="468" d="M382 105L235 252L87 105L40 151L188 299L40 446L87 493L235 346L382 493L428 446L281 299L428 151L382 105Z" />
<glyph unicode="&#xd8;" glyph-name="Oslash" horiz-adv-x="708" d="M658 572V129L561 0H212L203 -17L112 -83L80 -40L143 6L50 129V572L148 700H497L505 716L596 782L628 738L566 693L658 572ZM117 152L181 67L464 633H181L117 549V152ZM592 549L529 632L245
67H528L592 152V549Z" />
<glyph unicode="&#xd9;" glyph-name="Ugrave" horiz-adv-x="676" d="M530 0H147L50 128V700H117V151L181 67H496L561 151V700H626V128L530 0ZM292 832V922H345V850L383 800L340 769L292 832Z" />
<glyph unicode="&#xda;" glyph-name="Uacute" horiz-adv-x="676" d="M530 0H147L50 128V700H117V151L181 67H496L561 151V700H626V128L530 0ZM292 800L330 850V922H383V832L335 769L292 800Z" />
<glyph unicode="&#xdb;" glyph-name="Ucircumflex" horiz-adv-x="676" d="M530 0H147L50 128V700H117V151L181 67H496L561 151V700H626V128L530 0ZM316 922H364L466 793H408L340 876L270 793H210L316 922Z" />
<glyph unicode="&#xdc;" glyph-name="Udieresis" horiz-adv-x="676" d="M530 0H147L50 128V700H117V151L181 67H496L561 151V700H626V128L530 0ZM211 851H300V797H211V851ZM377 797V851H466V797H377Z" />
<glyph unicode="&#xdd;" glyph-name="Yacute" horiz-adv-x="636" d="M306 323L334 306L530 614V700H596V595L370 239H360V0H248V66H294V239H281L40 597V700H107V617L306 323ZM272 800L310 850V922H363V832L315 769L272 800Z" />
<glyph unicode="&#xde;" glyph-name="Thorn" horiz-adv-x="625" d="M50 770H117V604H535L585 483V383L470 218H117V-4H50V770ZM435 285L519 405V470L491 537H117V285H435Z" />
<glyph unicode="&#xdf;" glyph-name="germandbls" horiz-adv-x="639" d="M50 700H549L599 579V480L507 349L599 221V121L549 0H229V67H504L533 134V199L449 315H117V0H50V700ZM449 382L533 501V567L504 633H117V382H449Z" />
<glyph unicode="&#xe0;" glyph-name="agrave" horiz-adv-x="565" d="M450 1V38L401 0H138L40 81V397L138 477H402L450 430V477H515V1H450ZM450 340L383 412H161L107 366V111L162 67H387L450 118V340ZM237 620V710H290V638L328 588L285 557L237 620Z" />
<glyph unicode="&#xe1;" glyph-name="aacute" horiz-adv-x="565" d="M450 1V38L401 0H138L40 81V397L138 477H402L450 430V477H515V1H450ZM450 340L383 412H161L107 366V111L162 67H387L450 118V340ZM237 588L275 638V710H328V620L280 557L237 588Z" />
<glyph unicode="&#xe2;" glyph-name="acircumflex" horiz-adv-x="565" d="M450 1V38L401 0H138L40 81V397L138 477H402L450 430V477H515V1H450ZM450 340L383 412H161L107 366V111L162 67H387L450 118V340ZM261 710H309L411 581H353L285 664L215 581H155L261 710Z" />
<glyph unicode="&#xe3;" glyph-name="atilde" horiz-adv-x="565" d="M450 1V38L401 0H138L40 81V397L138 477H402L450 430V477H515V1H450ZM450 340L383 412H161L107 366V111L162 67H387L450 118V340ZM123 578L180 635H364L405 676L443 641L386 582H202L161 540L123 578Z" />
<glyph unicode="&#xe4;" glyph-name="adieresis" horiz-adv-x="565" d="M450 1V38L401 0H138L40 81V397L138 477H402L450 430V477H515V1H450ZM450 340L383 412H161L107 366V111L162 67H387L450 118V340ZM156 639H245V585H156V639ZM322 585V639H411V585H322Z" />
<glyph unicode="&#xe5;" glyph-name="aring" horiz-adv-x="565" d="M450 1V38L401 0H138L40 81V397L138 477H402L450 430V477H515V1H450ZM450 340L383 412H161L107 366V111L162 67H387L450 118V340ZM208 584V685L242 710H323L357 685V584L323 559H242L208 584ZM306
598L318 607V661L306 671H260L247 661V607L260 598H306Z" />
<glyph unicode="&#xe6;" glyph-name="ae" horiz-adv-x="976" d="M527 220V113L589 67H815L881 122L924 70L839 0H567L515 39V1H450V38L401 0H138L40 81V397L138 477H402L450 430V477H515V439L567 477H839L936 397V220H527ZM450 340L383 412H161L107 366V111L162
67H387L450 118V340ZM527 283H870V366L815 412H589L527 365V283Z" />
<glyph unicode="&#xe7;" glyph-name="ccedilla" horiz-adv-x="578" d="M462 310V366L407 412H179L117 365V112L179 65H407L462 110V166H528V79L431 -2H347L341 -28L394 -77V-156L332 -226H230L184 -153V-113H235V-138L258 -175L309 -176L343 -136V-100L281 -42L293
-2H158L50 78V399L158 478H431L528 397V310H462Z" />
<glyph unicode="&#xe8;" glyph-name="egrave" horiz-adv-x="556" d="M107 220V113L169 67H395L461 122L504 70L419 0H147L40 80V399L147 477H419L516 397V220H107ZM450 366L395 412H169L107 365V283H450V366ZM232 615V705H285V633L323 583L280 552L232 615Z" />
<glyph unicode="&#xe9;" glyph-name="eacute" horiz-adv-x="556" d="M107 220V113L169 67H395L461 122L504 70L419 0H147L40 80V399L147 477H419L516 397V220H107ZM450 366L395 412H169L107 365V283H450V366ZM232 583L270 633V705H323V615L275 552L232 583Z" />
<glyph unicode="&#xea;" glyph-name="ecircumflex" horiz-adv-x="556" d="M107 220V113L169 67H395L461 122L504 70L419 0H147L40 80V399L147 477H419L516 397V220H107ZM450 366L395 412H169L107 365V283H450V366ZM256 705H304L406 576H348L280 659L210 576H150L256 705Z" />
<glyph unicode="&#xeb;" glyph-name="edieresis" horiz-adv-x="556" d="M107 220V113L169 67H395L461 122L504 70L419 0H147L40 80V399L147 477H419L516 397V220H107ZM450 366L395 412H169L107 365V283H450V366ZM151 634H240V580H151V634ZM317 580V634H406V580H317Z" />
<glyph unicode="&#xec;" glyph-name="igrave" horiz-adv-x="161" d="M50 0V478H111V0H50ZM32 610V700H85V628L123 578L80 547L32 610Z" />
<glyph unicode="&#xed;" glyph-name="iacute" horiz-adv-x="161" d="M50 0V478H111V0H50ZM32 578L70 628V700H123V610L75 547L32 578Z" />
<glyph unicode="&#xee;" glyph-name="icircumflex" horiz-adv-x="356" d="M150 0V478H211V0H150ZM156 700H204L306 571H248L180 654L110 571H50L156 700Z" />
<glyph unicode="&#xef;" glyph-name="idieresis" horiz-adv-x="355" d="M149 0V478H210V0H149ZM50 629H139V575H50V629ZM216 575V629H305V575H216Z" />
<glyph unicode="&#xf0;" glyph-name="eth" horiz-adv-x="625" d="M516 610V1L138 0L40 81V329L138 408H450V572L399 542L369 594L426 627L377 665L426 706L482 660L545 697L575 645L516 610ZM450 342H161L107 297V112L162 67H450V342Z" />
<glyph unicode="&#xf1;" glyph-name="ntilde" horiz-adv-x="538" d="M432 0V365L369 412H180L117 365V1H50V477H117V435L170 477H390L498 399V0H432ZM109 568L166 625H350L391 666L429 631L372 572H188L147 530L109 568Z" />
<glyph unicode="&#xf2;" glyph-name="ograve" horiz-adv-x="548" d="M401 -2H147L40 78V399L147 477H401L508 399V78L401 -2ZM442 365L379 412H170L107 365V112L170 65H379L442 112V365ZM228 610V700H281V628L319 578L276 547L228 610Z" />
<glyph unicode="&#xf3;" glyph-name="oacute" horiz-adv-x="548" d="M401 -2H147L40 78V399L147 477H401L508 399V78L401 -2ZM442 365L379 412H170L107 365V112L170 65H379L442 112V365ZM228 578L266 628V700H319V610L271 547L228 578Z" />
<glyph unicode="&#xf4;" glyph-name="ocircumflex" horiz-adv-x="548" d="M401 -2H147L40 78V399L147 477H401L508 399V78L401 -2ZM442 365L379 412H170L107 365V112L170 65H379L442 112V365ZM252 700H300L402 571H344L276 654L206 571H146L252 700Z" />
<glyph unicode="&#xf5;" glyph-name="otilde" horiz-adv-x="548" d="M401 -2H147L40 78V399L147 477H401L508 399V78L401 -2ZM442 365L379 412H170L107 365V112L170 65H379L442 112V365ZM114 568L171 625H355L396 666L434 631L377 572H193L152 530L114 568Z" />
<glyph unicode="&#xf6;" glyph-name="odieresis" horiz-adv-x="548" d="M401 -2H147L40 78V399L147 477H401L508 399V78L401 -2ZM442 365L379 412H170L107 365V112L170 65H379L442 112V365ZM147 629H236V575H147V629ZM313 575V629H402V575H313Z" />
<glyph unicode="&#xf7;" glyph-name="divide" horiz-adv-x="562" d="M235 457H328V391H235V457ZM40 334H522V268H40V334ZM235 210H328V144H235V210Z" />
<glyph unicode="&#xf8;" glyph-name="oslash" horiz-adv-x="548" d="M508 399V78L401 -2H189L177 -27L86 -93L54 -50L128 4L131 10L40 78V399L147 477H361L374 504L465 569L497 526L424 473L419 464L508 399ZM161 72L329 412H170L107 365V112L161 72ZM442 365L390
404L222 65H379L442 112V365Z" />
<glyph unicode="&#xf9;" glyph-name="ugrave" horiz-adv-x="537" d="M422 1V43L366 0H147L40 80V478H107V118L169 67H359L422 118V477H487V1H422ZM223 610V700H276V628L314 578L271 547L223 610Z" />
<glyph unicode="&#xfa;" glyph-name="uacute" horiz-adv-x="537" d="M422 1V43L366 0H147L40 80V478H107V118L169 67H359L422 118V477H487V1H422ZM223 578L261 628V700H314V610L266 547L223 578Z" />
<glyph unicode="&#xfb;" glyph-name="ucircumflex" horiz-adv-x="537" d="M422 1V43L366 0H147L40 80V478H107V118L169 67H359L422 118V477H487V1H422ZM247 700H295L397 571H339L271 654L201 571H141L247 700Z" />
<glyph unicode="&#xfc;" glyph-name="udieresis" horiz-adv-x="537" d="M422 1V43L366 0H147L40 80V478H107V118L169 67H359L422 118V477H487V1H422ZM142 629H231V575H142V629ZM308 575V629H397V575H308Z" />
<glyph unicode="&#xfd;" glyph-name="yacute" horiz-adv-x="523" d="M164 -176L112 -134L225 4L40 216V478H107V240L257 68H278L418 237V478H483V214L164 -176ZM216 578L254 628V700H307V610L259 547L216 578Z" />
<glyph unicode="&#xfe;" glyph-name="thorn" horiz-adv-x="565" d="M429 59H160L115 90V-111H50V700H115V492L163 537H429L525 457V140L429 59ZM460 425L404 470H190L115 399V172L178 126H404L460 171V425Z" />
<glyph unicode="&#xff;" glyph-name="ydieresis" horiz-adv-x="523" d="M164 -176L112 -134L225 4L40 216V478H107V240L257 68H278L418 237V478H483V214L164 -176ZM135 629H224V575H135V629ZM301 575V629H390V575H301Z" />
<glyph unicode="&#x2013;" glyph-name="endash" horiz-adv-x="581" d="M531 264H50V325H531V264Z" />
<glyph unicode="&#x2014;" glyph-name="emdash" horiz-adv-x="848" d="M798 264H50V325H798V264Z" />
<glyph unicode="&#x2018;" glyph-name="quoteleft" horiz-adv-x="183" d="M89 482L35 518L69 566V700H133V544L89 482Z" />
<glyph unicode="&#x2019;" glyph-name="quoteright" horiz-adv-x="183" d="M50 700H115V566L148 518L95 482L50 544V700Z" />
<glyph unicode="&#x201a;" glyph-name="quotesinglbase" horiz-adv-x="197" d="M107 -104L53 -68L87 -20V114H151V-42L107 -104Z" />
<glyph unicode="&#x201c;" glyph-name="quotedblleft" horiz-adv-x="312" d="M218 485L164 521L198 569V703H262V547L218 485ZM89 485L35 521L69 569V703H133V547L89 485Z" />
<glyph unicode="&#x201d;" glyph-name="quotedblright" horiz-adv-x="312" d="M50 703H115V570L148 521L95 485L50 547V703ZM179 703H244V570L277 521L224 485L179 547V703Z" />
<glyph unicode="&#x201e;" glyph-name="quotedblbase" horiz-adv-x="306" d="M344 -104L290 -68L324 -20V114H388V-42L344 -104ZM216 -104L162 -68L196 -20V114H260V-42L216 -104Z" />
<glyph unicode="&#x2022;" glyph-name="bullet" horiz-adv-x="296" d="M211 204H85L50 232V379L85 406H211L246 379V232L211 204Z" />
<glyph unicode="&#x2039;" glyph-name="guilsinglleft" horiz-adv-x="382" d="M307 475L342 419L154 299L342 177L307 121L50 283V315L307 475Z" />
<glyph unicode="&#x203a;" glyph-name="guilsinglright" horiz-adv-x="392" d="M342 283L86 121L51 177L238 299L51 419L86 475L342 315V283Z" />
</font>
</defs>
</svg>
